<svg xmlns="http://www.w3.org/2000/svg" xmlns:xlink="http://www.w3.org/1999/xlink" id="body_1" preserveAspectRatio="xMinYMin meet" viewBox="0 0 816 1056"><defs><clipPath id="1"><path d="M0 792L0 0L0 0L612 0L612 0L612 792L612 792L0 792z" /></clipPath></defs><g transform="matrix(1.333333 0 0 1.333333 0 0)"><g><g clip-path="url(#1)"><path transform="matrix(1 0 0 -1 0 792)" d="M28.8 678.541L583.201 678.541" stroke="#000000" stroke-width="0.398" fill="none" /><path transform="matrix(1 0 0 -1 0 792)" d="M28.8 577.317L583.201 577.317" stroke="#000000" stroke-width="0.398" fill="none" /><path transform="matrix(1 0 0 -1 0 792)" d="M28.8 537.865L583.201 537.865" stroke="#000000" stroke-width="0.398" fill="none" /><path transform="matrix(1 0 0 -1 0 792)" d="M28.8 498.413L583.201 498.413" stroke="#000000" stroke-width="0.398" fill="none" /><path transform="matrix(1 0 0 -1 0 792)" d="M28.8 456.233L583.201 456.233" stroke="#000000" stroke-width="0.398" fill="none" /><path transform="matrix(1 0 0 -1 0 792)" d="M28.8 416.781L583.201 416.781" stroke="#000000" stroke-width="0.398" fill="none" /><path transform="matrix(1 0 0 -1 0 792)" d="M28.8 288.458L583.201 288.458" stroke="#000000" stroke-width="0.398" fill="none" /><path transform="matrix(1 0 0 -1 0 792)" d="M28.8 160.135L583.201 160.135" stroke="#000000" stroke-width="0.398" fill="none" /></g></g></g></svg>